HIERARCHY
ROOT Hips
{
 OFFSET 0.000000 0.000000 0.000000
 CHANNELS 6 Xposition Yposition Zposition Yrotation Xrotation Zrotation
 JOINT Chest
 {
  OFFSET 0.000000 9.303000 0.001900
  CHANNELS 3 Yrotation Xrotation Zrotation
  JOINT Chest2
  {
   OFFSET 0.000000 9.301100 -0.003900
   CHANNELS 3 Yrotation Xrotation Zrotation
   JOINT Chest3
   {
    OFFSET 0.000000 9.262800 0.000000
    CHANNELS 3 Yrotation Xrotation Zrotation
    JOINT Chest4
    {
     OFFSET 0.000000 9.253300 0.000000
     CHANNELS 3 Yrotation Xrotation Zrotation
     JOINT Neck
     {
      OFFSET 0.000000 14.010300 0.000000
      CHANNELS 3 Yrotation Xrotation Zrotation
      JOINT Head
      {
       OFFSET 0.000000 8.657600 -0.008300
       CHANNELS 3 Yrotation Xrotation Zrotation
       End Site
       {
        OFFSET 0.000000 16.540200 -0.004400
       }
      }
     }
     JOINT RightCollar
     {
      OFFSET -2.834100 9.267700 0.000000
      CHANNELS 3 Yrotation Xrotation Zrotation
      JOINT RightShoulder
      {
       OFFSET -13.135200 0.000000 0.000000
       CHANNELS 3 Yrotation Xrotation Zrotation
       JOINT RightElbow
       {
        OFFSET 0.000000 -28.893500 0.000000
        CHANNELS 3 Yrotation Xrotation Zrotation
        JOINT RightWrist
        {
         OFFSET 0.000000 -23.344000 0.000000
         CHANNELS 3 Yrotation Xrotation Zrotation
         End Site
         {
          OFFSET 0.000000 -17.223000 0.000000
         }
        }
       }
      }
     }
     JOINT LeftCollar
     {
      OFFSET 2.834100 9.267700 0.000000
      CHANNELS 3 Yrotation Xrotation Zrotation
      JOINT LeftShoulder
      {
       OFFSET 13.135200 0.000000 0.000000
       CHANNELS 3 Yrotation Xrotation Zrotation
       JOINT LeftElbow
       {
        OFFSET 0.000000 -28.893500 0.000000
        CHANNELS 3 Yrotation Xrotation Zrotation
        JOINT LeftWrist
        {
         OFFSET 0.000000 -23.344000 0.000000
         CHANNELS 3 Yrotation Xrotation Zrotation
         End Site
         {
          OFFSET 0.000000 -17.223000 0.000000
         }
        }
       }
      }
     }
    }
   }
  }
 }
 JOINT RightHip
 {
  OFFSET -7.547200 -0.009500 -0.001000
  CHANNELS 3 Yrotation Xrotation Zrotation
  JOINT RightKnee
  {
   OFFSET 0.000000 -39.762800 0.000900
   CHANNELS 3 Yrotation Xrotation Zrotation
   JOINT RightAnkle
   {
    OFFSET 0.000000 -38.588200 0.001600
    CHANNELS 3 Yrotation Xrotation Zrotation
    JOINT RightToe
    {
     OFFSET 0.000000 -4.693300 10.419700
     CHANNELS 3 Yrotation Xrotation Zrotation
     End Site
     {
      OFFSET 0.000000 -1.379900 5.669300
     }
    }
   }
  }
 }
 JOINT LeftHip
 {
  OFFSET 7.547200 -0.009500 -0.001000
  CHANNELS 3 Yrotation Xrotation Zrotation
  JOINT LeftKnee
  {
   OFFSET 0.000000 -39.762800 0.000900
   CHANNELS 3 Yrotation Xrotation Zrotation
   JOINT LeftAnkle
   {
    OFFSET 0.000000 -38.588200 0.001600
    CHANNELS 3 Yrotation Xrotation Zrotation
    JOINT LeftToe
    {
     OFFSET 0.000000 -4.693300 10.419700
     CHANNELS 3 Yrotation Xrotation Zrotation
     End Site
     {
      OFFSET 0.000000 -1.379900 5.669300
     }
    }
   }
  }
 }
}
MOTION
Frames: 14
Frame Time: 0.008333
0.000000 82.880600 0.000000 0.000000 -5.767877 0.000000 0.000000 11.653817 0.000000 0.000000 -5.885947 0.000000 0.000000 -0.000000 0.000000 0.000000 -0.000000 0.000000 0.000000 12.528835 0.000000 0.000000 0.711642 0.000000 0.000000 -0.000000 0.000000 0.000000 0.000000 -90.000000 0.000000 -2.309062 0.000000 0.000000 2.309062 0.000000 0.000000 -0.000000 0.000000 0.000000 -0.000000 90.000000 0.000000 -2.309062 0.000000 0.000000 2.309062 0.000000 0.000000 8.520406 0.000000 0.000000 1.905762 0.000000 -0.000000 -4.658285 0.000000 0.000000 -0.000000 0.000000 0.000000 8.520406 0.000000 0.000000 1.905762 0.000000 -0.000000 -4.658285 0.000000 0.000000 -0.000000 0.000000
22.502534 45.915301 -9.579655 160.774704 -16.466982 0.425444 4.667023 8.838824 1.251678 0.268615 0.530807 0.063590 0.467751 0.916880 0.110264 4.272417 8.179213 1.267091 -1.287300 22.687777 -0.074381 -1.366187 -1.422134 0.207073 4.113096 5.251484 -3.550037 -1.359525 -13.228877 -4.742375 -48.894809 -76.193475 56.755365 -9.482036 -4.676738 -30.621972 -11.468355 1.474083 -6.398865 17.018448 -15.167525 11.655999 49.560175 -59.698221 -65.690980 6.495917 -1.503158 17.431018 -12.380903 -71.440643 10.887366 -115.797193 85.910755 -116.436578 -8.033121 -7.741877 -2.038793 0.039432 -0.115011 0.026419 -1.141352 -70.689094 22.881449 72.350692 75.896531 71.412514 -10.991605 -4.639668 -0.042158 0.031772 0.188163 0.013791
22.504744 45.914964 -9.579752 160.763541 -16.468507 0.427162 4.676852 8.841120 1.253849 0.265309 0.531040 0.064562 0.467300 0.918465 0.111016 4.275093 8.181777 1.266520 -1.285490 22.686377 -0.073674 -1.367066 -1.427697 0.208211 4.113011 5.247361 -3.553086 -1.366372 -13.229776 -4.737254 -48.909328 -76.185451 56.760939 -9.476567 -4.685336 -30.620294 -11.471574 1.470206 -6.394967 17.020603 -15.165572 11.654173 49.553895 -59.696193 -65.686460 6.498151 -1.507684 17.435626 -12.380388 -71.438552 10.899536 -115.764561 85.910588 -116.405755 -8.047865 -7.742052 -2.040565 0.010064 -0.115146 0.024932 -1.138440 -70.689974 22.894758 72.364743 75.901105 71.428872 -10.999435 -4.638979 -0.045839 0.036239 0.185430 0.015724
22.506435 45.914671 -9.580550 160.754011 -16.471839 0.433955 4.680364 8.844332 1.250373 0.266205 0.532561 0.064936 0.469354 0.918162 0.110180 4.276664 8.184972 1.268603 -1.285342 22.686488 -0.073770 -1.364581 -1.426440 0.209340 4.113084 5.248704 -3.554206 -1.380453 -13.235864 -4.732253 -48.914572 -76.186127 56.766872 -9.490415 -4.695670 -30.633819 -11.473737 1.466117 -6.394064 17.018818 -15.161907 11.654685 49.545192 -59.697628 -65.675637 6.504056 -1.511399 17.435818 -12.368994 -71.435071 10.905516 -115.674393 85.904316 -116.317136 -8.108283 -7.743427 -2.038948 0.024464 -0.114917 0.024203 -1.118555 -70.687949 22.886833 72.382495 75.903349 71.447704 -11.004392 -4.641259 -0.048009 0.035733 0.184125 0.017132
22.508068 45.914263 -9.581226 160.745107 -16.472872 0.440863 4.680192 8.847307 1.248095 0.271582 0.532308 0.063029 0.469959 0.917880 0.109453 4.283346 8.188616 1.273000 -1.291383 22.683720 -0.077049 -1.365217 -1.424355 0.211025 4.093379 5.247061 -3.555501 -1.384993 -13.240076 -4.729282 -48.929353 -76.186427 56.776679 -9.495617 -4.699943 -30.641292 -11.481051 1.460029 -6.393706 17.012039 -15.154738 11.654466 49.550841 -59.700834 -65.672113 6.503192 -1.508333 17.438520 -12.349266 -71.434924 10.898850 -115.612296 85.901961 -116.252849 -8.161234 -7.741459 -2.036489 0.017364 -0.116543 0.020447 -1.097888 -70.688168 22.877240 72.401507 75.905438 71.467855 -11.007237 -4.644818 -0.051258 0.034731 0.183535 0.019625
22.509624 45.914036 -9.582721 160.737949 -16.477382 0.448850 4.683317 8.852092 1.243382 0.273602 0.533037 0.062204 0.468848 0.919614 0.111297 4.287390 8.186549 1.272226 -1.293380 22.685569 -0.076644 -1.370400 -1.420847 0.213457 4.087859 5.246912 -3.556544 -1.401289 -13.239814 -4.723781 -48.989300 -76.177050 56.811512 -9.493427 -4.719028 -30.659666 -11.483738 1.460763 -6.390432 17.011303 -15.151318 11.653024 49.548298 -59.702234 -65.671190 6.503327 -1.505292 17.441724 -12.324782 -71.432331 10.887508 -115.562206 85.896744 -116.199326 -8.228960 -7.743001 -2.032234 0.009724 -0.117882 0.016024 -1.074679 -70.682845 22.863528 72.414945 75.908339 71.481182 -11.008800 -4.650859 -0.054917 0.037082 0.185237 0.022442
22.513593 45.913533 -9.582489 160.726865 -16.475323 0.439488 4.692537 8.848428 1.256176 0.274447 0.532157 0.062998 0.469641 0.919741 0.111327 4.290557 8.187047 1.271736 -1.294913 22.688685 -0.074850 -1.374497 -1.415407 0.215269 4.075555 5.247475 -3.553599 -1.398232 -13.239787 -4.726236 -49.014347 -76.173001 56.820299 -9.496648 -4.719390 -30.660051 -11.491098 1.461143 -6.388038 17.015920 -15.147079 11.655855 49.538209 -59.703439 -65.666740 6.509240 -1.508430 17.446015 -12.364489 -71.431239 10.928649 -115.659115 85.902082 -116.313653 -8.111835 -7.736714 -2.033863 0.030175 -0.120248 0.018491 -1.105365 -70.684555 22.910884 72.423755 75.913548 71.488529 -11.005352 -4.656508 -0.056793 0.036450 0.188326 0.023094
22.516784 45.912898 -9.581964 160.720351 -16.469014 0.431847 4.698098 8.840947 1.265292 0.271628 0.532064 0.063494 0.472919 0.920854 0.110578 4.292036 8.186083 1.271179 -1.304542 22.695424 -0.072277 -1.384400 -1.401775 0.216605 4.070640 5.243856 -3.547242 -1.397310 -13.236550 -4.731926 -49.042096 -76.167835 56.834221 -9.497461 -4.717869 -30.659481 -11.498812 1.457589 -6.377963 17.025558 -15.141174 11.647528 49.537372 -59.703552 -65.665180 6.510229 -1.508258 17.448023 -12.396530 -71.435508 10.957483 -115.730535 85.905218 -116.398610 -8.005372 -7.730607 -2.034047 0.048737 -0.122097 0.020431 -1.156244 -70.689838 22.967804 72.453247 75.917483 71.509590 -10.995234 -4.658733 -0.055441 0.027990 0.188091 0.019588
22.516234 45.912811 -9.584574 160.727718 -16.473366 0.447799 4.684899 8.845385 1.247589 0.271731 0.532138 0.063596 0.469974 0.919660 0.111422 4.285230 8.181206 1.274736 -1.304286 22.706342 -0.078196 -1.382630 -1.397286 0.213121 4.076755 5.251927 -3.545709 -1.409659 -13.239509 -4.731403 -49.034965 -76.165754 56.836492 -9.493382 -4.717300 -30.659976 -11.487146 1.463965 -6.383616 17.021585 -15.138914 11.650976 49.531605 -59.701920 -65.658385 6.514602 -1.508955 17.444808 -12.357065 -71.433988 10.922991 -115.612186 85.893627 -116.266835 -8.191278 -7.741759 -2.021679 0.021149 -0.119627 0.010419 -1.128299 -70.682709 22.930884 72.432023 75.921162 71.485559 -11.000141 -4.649824 -0.063708 0.036542 0.183307 0.023000
22.515885 45.912807 -9.587416 160.735915 -16.479201 0.462713 4.668766 8.845016 1.236212 0.276802 0.535566 0.061215 0.463327 0.915895 0.112817 4.279433 8.184578 1.269850 -1.297227 22.712648 -0.079536 -1.381143 -1.395795 0.211713 4.079186 5.251447 -3.538787 -1.402387 -13.235209 -4.738233 -49.035381 -76.164539 56.838938 -9.492053 -4.730309 -30.664554 -11.473841 1.469498 -6.384294 17.019196 -15.138787 11.654467 49.527960 -59.697417 -65.653711 6.511007 -1.504056 17.446324 -12.328913 -71.427491 10.900101 -115.453086 85.881285 -116.097790 -8.376197 -7.756778 -2.008981 -0.007334 -0.113710 -0.000438 -1.100376 -70.674976 22.893446 72.432315 75.920190 71.484469 -11.011177 -4.644783 -0.074032 0.044127 0.179379 0.028119
22.517273 45.912760 -9.589570 160.729343 -16.484237 0.470710 4.667047 8.847483 1.232195 0.273676 0.532813 0.061603 0.463270 0.916593 0.112534 4.281605 8.187653 1.266693 -1.293982 22.716487 -0.080003 -1.382983 -1.385680 0.212851 4.082300 5.252564 -3.537153 -1.402314 -13.234558 -4.737178 -49.049291 -76.163143 56.846008 -9.486578 -4.747443 -30.661106 -11.466023 1.475128 -6.372084 17.025267 -15.139451 11.640375 49.521241 -59.695781 -65.651461 6.509424 -1.503663 17.450517 -12.323394 -71.423550 10.896072 -115.511584 85.884736 -116.164233 -8.361416 -7.758720 -2.006299 -0.006128 -0.113369 -0.003400 -1.081253 -70.669438 22.880619 72.463169 75.925187 71.514172 -11.009054 -4.652950 -0.076080 0.040655 0.181259 0.025668
22.520782 45.912447 -9.590040 160.725241 -16.483503 0.463049 4.667553 8.844170 1.243281 0.273229 0.532572 0.059764 0.462277 0.916039 0.114004 4.277211 8.188121 1.263861 -1.298002 22.721735 -0.080967 -1.376666 -1.376253 0.209546 4.085072 5.253793 -3.535994 -1.408392 -13.236487 -4.730591 -49.040491 -76.171374 56.841050 -9.483109 -4.754477 -30.658622 -11.459469 1.480276 -6.367264 17.033843 -15.142648 11.632333 49.514295 -59.694599 -65.648670 6.510258 -1.504188 17.452885 -12.358354 -71.422556 10.923098 -115.635199 85.891032 -116.294616 -8.244261 -7.756605 -2.017954 0.012699 -0.115130 0.001131 -1.114491 -70.669717 22.924018 72.481183 75.927731 71.527437 -11.012226 -4.656338 -0.076442 0.037050 0.182560 0.025110
22.524063 45.911720 -9.588969 160.729903 -16.473060 0.452066 4.663001 8.831852 1.253479 0.269808 0.531844 0.062500 0.462295 0.913806 0.111793 4.256215 8.177386 1.265520 -1.287152 22.738437 -0.085967 -1.374355 -1.366175 0.204587 4.102330 5.263252 -3.536109 -1.414037 -13.233425 -4.730722 -49.027055 -76.177006 56.829606 -9.478678 -4.761893 -30.654663 -11.441768 1.498258 -6.371672 17.053749 -15.157664 11.627354 49.499512 -59.679304 -65.642954 6.505292 -1.503713 17.453320 -12.412363 -71.431370 10.961907 -115.754062 85.898450 -116.425943 -8.101664 -7.750041 -2.027193 0.030960 -0.118136 0.006048 -1.168806 -70.677029 22.985748 72.477619 75.935599 71.511629 -11.021108 -4.658219 -0.075233 0.041413 0.186050 0.027683
22.525892 45.911294 -9.589212 160.734404 -16.467672 0.453063 4.658077 8.826200 1.250948 0.268460 0.529724 0.063045 0.457752 0.910067 0.114035 4.249362 8.176901 1.264836 -1.285542 22.747020 -0.091089 -1.373845 -1.354130 0.203923 4.114815 5.263899 -3.534406 -1.435158 -13.236023 -4.728832 -48.988914 -76.181455 56.805233 -9.477107 -4.770931 -30.657807 -11.436661 1.510304 -6.371405 17.065772 -15.164365 11.619439 49.497238 -59.676812 -65.641354 6.511284 -1.505286 17.462659 -12.442279 -71.436863 10.980483 -115.819915 85.898774 -116.498978 -8.033262 -7.750203 -2.036452 0.044855 -0.119377 0.009873 -1.170184 -70.679883 22.990255 72.465828 75.939321 71.486795 -11.015738 -4.658112 -0.064359 0.035706 0.189023 0.024431
